<svg id="Layer_1" enable-background="new 0 0 512.001 512.001" height="512" viewBox="0 0 512.001 512.001" width="512" xmlns="http://www.w3.org/2000/svg"><g><path d="m430.001 180v294.75l-320 .25v-108l80-93 80 60 80-56z" fill="#ffda8f"/><path d="m430.001 40v140l-80 98-80 56-80-60-80 93v-170l80-63 80 90 80-156z" fill="#a0c8ff"/><g fill="#ffda8f"><circle cx="110.001" cy="366.997" r="20"/><circle cx="190.001" cy="274" r="20"/><circle cx="350.001" cy="278" r="20"/><circle cx="430.001" cy="180" r="20"/><circle cx="270.001" cy="334" r="20"/></g><circle cx="110.001" cy="196.997" fill="#a0c8ff" r="20"/><circle cx="190.001" cy="134" fill="#a0c8ff" r="20"/><circle cx="350.001" cy="68" fill="#a0c8ff" r="20"/><circle cx="430.001" cy="40" fill="#a0c8ff" r="20"/><circle cx="270.001" cy="224" fill="#a0c8ff" r="20"/><g><circle cx="430.001" cy="355" r="10"/><path d="m510.463 469.672-17-27c-2.941-4.673-9.116-6.078-13.79-3.134-4.674 2.943-6.077 9.117-3.134 13.791l7.349 11.671h-43.887v-65c0-5.51-4.49-10-10-10s-10 4.49-10 10v65h-300v-69.723c11.639-4.128 20-15.243 20-28.28 0-5.425-1.455-10.513-3.984-14.909l43.125-50.131c3.37 1.313 7.03 2.042 10.859 2.042 6.142 0 11.856-1.858 16.617-5.038l34.755 26.066c-.89 2.834-1.371 5.847-1.371 8.971 0 16.542 13.458 30 30 30s30-13.458 30-30c0-2.779-.388-5.469-1.099-8.025l33.678-23.575c4.915 3.519 10.928 5.599 17.42 5.599 16.542 0 30-13.458 30-30 0-5.701-1.6-11.036-4.372-15.58l44.234-54.187c.046.016.093.03.138.047v101.723c0 5.51 4.49 10 10 10s10-4.49 10-10v-101.72c11.639-4.128 20-15.243 20-28.28 0-5.701-1.6-11.036-4.372-15.58l20.003-24.504c3.492-4.278 2.855-10.578-1.423-14.07-4.28-3.493-10.578-2.856-14.071 1.423l-19.999 24.498c-.046-.016-.093-.03-.138-.047v-83.44c11.61-4.118 19.957-15.189 19.998-28.184l28.306-9.907c5.213-1.824 7.959-7.529 6.135-12.742-1.823-5.212-7.529-7.961-12.742-6.135l-28.323 9.913c-5.503-6.838-13.934-11.225-23.374-11.225-16.51 0-29.946 13.406-29.998 29.905l-26.629 9.32c-5.502-6.838-13.933-11.225-23.373-11.225-16.542 0-30 13.458-30 30 0 7.964 3.125 15.207 8.206 20.584l-54.2 105.692c-1.312-.176-2.647-.275-4.006-.275-4.001 0-7.819.793-11.312 2.221l-42.429-47.733c2.381-4.298 3.742-9.237 3.742-14.489 0-16.542-13.458-30-30-30s-30 13.458-30 30c0 3.371.567 6.611 1.597 9.638l-35.576 28.015c-4.639-2.943-10.132-4.656-16.021-4.656-16.542 0-30 13.458-30 30 0 13.036 8.361 24.152 20 28.28v113.44c-11.639 4.128-20 15.243-20 28.28s8.361 24.152 20 28.28v69.723h-53v-436.887l11.672 7.349c1.655 1.042 3.498 1.539 5.319 1.539 3.321 0 6.571-1.655 8.472-4.673 2.942-4.674 1.54-10.848-3.134-13.791l-27-17c-3.256-2.05-7.4-2.05-10.656 0l-27 17c-4.674 2.943-6.077 9.117-3.134 13.791s9.118 6.077 13.791 3.134l11.672-7.349v43.887h-11.75c-5.523 0-10 4.477-10 10s4.477 10 10 10h11.75v60h-11.75c-5.523 0-10 4.477-10 10s4.477 10 10 10h11.75v60h-11.75c-5.523 0-10 4.477-10 10s4.477 10 10 10h11.75v60h-11.75c-5.523 0-10 4.477-10 10s4.477 10 10 10h11.75v60h-11.75c-5.523 0-10 4.477-10 10s4.477 10 10 10h11.75v53h-17c-5.523 0-10 4.477-10 10s4.477 10 10 10h17v17c0 5.523 4.477 10 10 10s10-4.477 10-10v-17h53v9.75c0 5.523 4.477 10 10 10s10-4.477 10-10v-9.75h60v11.75c0 5.523 4.477 10 10 10s10-4.477 10-10v-11.75h60v11.75c0 5.523 4.478 10 10 10s10-4.477 10-10v-11.75h60v11.75c0 5.523 4.478 10 10 10s10-4.477 10-10v-11.75h60v9.75c0 5.523 4.478 10 10 10s10-4.477 10-10v-9.75h43.887l-7.349 11.672c-2.943 4.674-1.54 10.848 3.134 13.791 1.655 1.042 3.497 1.539 5.318 1.539 3.322 0 6.571-1.655 8.472-4.673l17-27c2.048-3.257 2.048-7.401-.003-10.657zm-320.462-185.672c-5.514 0-10-4.486-10-10s4.486-10 10-10 10 4.486 10 10-4.486 10-10 10zm80 60c-5.514 0-10-4.486-10-10s4.486-10 10-10 10 4.486 10 10-4.486 10-10 10zm80-56c-5.514 0-10-4.486-10-10s4.486-10 10-10 10 4.486 10 10-4.486 10-10 10zm80-98c-5.514 0-10-4.486-10-10s4.486-10 10-10 10 4.486 10 10-4.486 10-10 10zm0-160c5.514 0 10 4.486 10 10s-4.486 10-10 10-10-4.486-10-10 4.487-10 10-10zm-80 28c5.514 0 10 4.486 10 10s-4.486 10-10 10-10-4.486-10-10 4.487-10 10-10zm-80 156c5.514 0 10 4.486 10 10s-4.486 10-10 10-10-4.486-10-10 4.487-10 10-10zm-80-90c5.514 0 10 4.486 10 10s-4.486 10-10 10-10-4.486-10-10 4.486-10 10-10zm-50 72.997c0-3.371-.567-6.611-1.597-9.638l35.576-28.015c4.639 2.943 10.132 4.656 16.021 4.656 4.001 0 7.819-.794 11.313-2.222l42.429 47.733c-2.381 4.298-3.742 9.237-3.742 14.489 0 16.542 13.458 30 30 30s30-13.458 30-30c0-7.964-3.125-15.207-8.206-20.583l54.201-105.692c1.312.175 2.647.275 4.005.275 16.51 0 29.945-13.406 29.998-29.904l26.629-9.32c3.46 4.298 8.077 7.626 13.374 9.506v83.438c-11.639 4.128-20 15.243-20 28.28 0 5.702 1.6 11.036 4.372 15.58l-44.234 54.187c-3.169-1.141-6.581-1.767-10.138-1.767-16.542 0-30 13.458-30 30 0 2.779.388 5.468 1.099 8.024l-33.678 23.575c-4.915-3.519-10.927-5.599-17.42-5.599-6.142 0-11.856 1.858-16.617 5.038l-34.755-26.066c.89-2.834 1.371-5.847 1.371-8.971 0-16.542-13.458-30-30-30s-30 13.458-30 30c0 5.425 1.455 10.513 3.984 14.909l-43.125 50.131c-.283-.11-.572-.211-.859-.313v-113.45c11.638-4.129 19.999-15.245 19.999-28.281zm-30-10c5.514 0 10 4.486 10 10s-4.486 10-10 10-10-4.486-10-10 4.486-10 10-10zm0 170c5.514 0 10 4.486 10 10s-4.486 10-10 10-10-4.486-10-10 4.486-10 10-10z"/></g></g></svg>